<?xml version="1.0" encoding="UTF-8" standalone="no"?>
<svg
   width="81"
   height="85"
   viewBox="0 0 81 85"
   fill="none"
   version="1.1"
   id="svg8"
   sodipodi:docname="Group_83.svg"
   inkscape:version="1.1.2 (0a00cf5339, 2022-02-04)"
   xmlns:inkscape="http://www.inkscape.org/namespaces/inkscape"
   xmlns:sodipodi="http://sodipodi.sourceforge.net/DTD/sodipodi-0.dtd"
   xmlns="http://www.w3.org/2000/svg"
   xmlns:svg="http://www.w3.org/2000/svg">
  <defs
     id="defs12" />
  <sodipodi:namedview
     id="namedview10"
     pagecolor="#ffffff"
     bordercolor="#666666"
     borderopacity="1.0"
     inkscape:pageshadow="2"
     inkscape:pageopacity="0.0"
     inkscape:pagecheckerboard="0"
     showgrid="false"
     inkscape:zoom="8.4588235"
     inkscape:cx="11.526426"
     inkscape:cy="23.58484"
     inkscape:window-width="1920"
     inkscape:window-height="1125"
     inkscape:window-x="3840"
     inkscape:window-y="0"
     inkscape:window-maximized="1"
     inkscape:current-layer="svg8" />
  <path
     d="M56.5177 52.3224C56.5177 62.2114 40.2589 85 40.2589 85C40.2589 85 24 62.2114 24 52.3224C24 42.4334 31.2793 34.4169 40.2589 34.4169C49.2384 34.4169 56.5177 42.4334 56.5177 52.3224Z"
     fill="#F0B411"
     id="path4"
     style="fill:#018cfe;fill-opacity:1" />
  <path
     fill="#e7e7e7"
     stroke="#cccccc"
     style="color:#000000;fill:#0132ed;stroke:#000000;stroke-opacity:1;fill-opacity:1"
     stroke-width="0.660931"
     stroke-linejoin="round"
     stroke-dashoffset=""
     fill-rule="nonzero"
     id="knest1"
     d="m 29.402438,54.04206 4.717023,-13.605697 13.710028,0.552348 3.756265,13.947118 -11.388558,8.067422 z"
     fill-opacity="1" />
  <path
     fill="#e9e9e9"
     stroke="#cccccc"
     style="color:#000000;fill:#018cfe;stroke:#000000;stroke-opacity:1;fill-opacity:1"
     stroke-width="0.660931"
     stroke-linejoin="round"
     stroke-dashoffset=""
     fill-rule="nonzero"
     d="M 51.884281,47.445228 47.005934,60.987334 33.303552,60.253321 29.713334,46.257517 41.196869,38.34167 Z"
     fill-opacity="1"
     id="knest2" />
  <path
     fill="#ececec"
     stroke="#cccccc"
     style="color:#000000;fill-opacity:1;fill:none;stroke:#000000;stroke-opacity:1;stroke-width:0.661;stroke-miterlimit:4;stroke-dasharray:none"
     stroke-width="0.660931"
     stroke-linejoin="round"
     stroke-dashoffset=""
     fill-rule="nonzero"
     d="m 48.892552,44.99769 -0.554143,12.20953 -11.170958,3.200799 -6.349923,-10.231364 7.24652,-9.524118 z"
     fill-opacity="1"
     id="knest3" />
  <path
     fill="#e9e9e9"
     stroke="#cccccc"
     style="color:#000000;stroke:#000000;stroke-opacity:1;fill:#0134ed;fill-opacity:1"
     stroke-width="0.660931"
     stroke-linejoin="round"
     stroke-dashoffset=""
     fill-rule="nonzero"
     id="eagle"
     d="m 39.459493,51.636923 7.620479,-5.249287 -7.463492,9.054753 -4.25361,-6.477271 z"
     fill-opacity="1" />
  <path
     d="m 3.9110417,8.4988091 -0.0218,5.7269999 h 3.24458 c 0.6315,0 1.24122,-0.0436 1.87271,-0.3484 0.93636,-0.4791 1.4371603,-1.4154 1.4371603,-2.4389 0,-1.0452 -0.5226003,-2.0686999 -1.5242603,-2.5694999 -0.67505,-0.3267 -1.30654,-0.3702 -1.98159,-0.3702 z m -1.87272,-1.67675 h 4.89954 c 1.04523,0 2.02514,0 3.04865,0.54439 1.5243003,0.78396 2.3082003,2.35176 2.3082003,3.9849599 0,1.6332 -0.7839,3.1792 -2.2865,3.9414 -0.9798803,0.5008 -1.9380103,0.5008 -2.9397003,0.5008 h -3.15747 v 7.1207 h -1.87272 z M 25.752112,17.056609 c 0,3.9197 -2.526,6.1626 -5.3133,6.1626 -2.9833,0 -5.531,-2.526 -5.531,-6.119 0,-3.6366 2.5913,-6.2496 5.5963,-6.2496 2.6784,0 5.248,2.134 5.248,6.206 z m -5.3786,-4.6164 c -1.8074,0 -3.5059,1.6114 -3.5059,4.5076 0,2.9179 1.7203,4.6817 3.593,4.6817 1.7203,0 3.4188,-1.5243 3.4188,-4.4858 0,-3.2663 -1.8074,-4.7035 -3.5059,-4.7035 z m 9.0369,-6.6851599 h 5.2044 V 21.411809 h 3.4841 v 1.5025 h -8.8627 v -1.5025 h 3.5059 V 7.2357891 h -3.3317 z m 13.5009,6.7504599 c 1.0888,-1.1323 2.6131,-1.6549 4.2027,-1.6549 1.8292,0 3.3317,0.675 4.1157,1.9598 0.5444,0.9145 0.5661,1.8291 0.5661,2.7873 v 7.3166 h -1.7638 v -1.2848 c -1.2848,1.0453 -2.7655,1.5679 -4.2245,1.5679 -2.4824,0 -3.9632,-1.5896 -3.9632,-3.3317 0,-1.3065 0.8493,-2.6784 2.7002,-3.3752 1.3719,-0.5227 3.0704,-0.5227 4.7036,-0.5227 h 0.3919 0.3702 v -0.4355 c 0,-0.6315 0,-1.3718 -0.3702,-2.0251 -0.3266,-0.5662 -1.0234,-1.1323 -2.4388,-1.1323 -1.0888,0 -2.4172,0.3048 -3.3753,1.3065 z m 7.1642,4.8778 h -0.4137 -1.3936 c -0.8928,0 -1.7856,0.0217 -2.4825,0.1742 -1.4807,0.3484 -2.0687,1.3283 -2.0687,2.1993 0,1.0453 0.8928,2.0252 2.4607,2.0252 1.5461,0 2.7002,-0.9582 3.1139,-1.3937 0.7622,-0.8057 0.7839,-1.5243 0.7839,-2.1122 v -0.1089 z m 5.5964,5.531 v -11.8024 h 1.8945 v 2.0904 c 0.871,-1.3065 2.3082,-2.3735 3.9196,-2.3735 1.3501,0 2.5696,0.7621 3.1575,2.0904 0.4137,0.9582 0.4137,1.9163 0.4137,2.8309 v 7.1642 h -1.8291 v -7.1207 c 0,-0.8274 0,-1.8509 -0.6315,-2.613 -0.4138,-0.5009 -1.0235,-0.7404 -1.6114,-0.7404 -1.2412,0 -2.3518,1.0234 -2.8309,1.6332 -0.5008,0.6532 -0.5879,1.2412 -0.5879,2.0469 v 6.794 z m 21.1878,-10.0822 V 5.7114891 h 1.9816 c 0,0.17421 -0.1089,0.30486 -0.1525,0.39197 -0.0871,0.15243 -0.1088,0.21775 -0.1088,0.34841 l 0.0217,15.3736399 c 0,0.3484 0.0436,0.7186 0.1307,1.0888 h -1.851 c -0.0871,-0.2831 -0.1306,-0.5879 -0.1306,-0.871 v -1.0235 c -0.7404,1.3283 -2.134,2.1558 -3.6366,2.1558 -2.2864,0 -4.7035,-1.9163 -4.7035,-6.2714 0,-4.5076 2.7437,-6.0972 4.9866,-6.0972 1.6332,0 2.8962,0.8057 3.4624,2.0251 z m -3.3753,-0.5008 c -1.3501,0 -3.2663,0.9146 -3.2663,4.268 0,3.8979 2.0033,4.9431 3.3317,4.9431 1.2412,0 2.4171,-0.8274 2.8961,-2.2429 0.196,-0.5879 0.2613,-1.263 0.2613,-2.1558 0,-1.3283 -0.0435,-1.9816 -0.1959,-2.5259 -0.4791,-1.7421 -1.9816,-2.2865 -3.0269,-2.2865 z"
     fill="#ffffff"
     id="path2" />
</svg>
