<?xml version="1.0" encoding="UTF-8" standalone="no"?>
<svg
   width="134"
   height="85"
   viewBox="0 0 134 85"
   fill="none"
   version="1.1"
   id="svg271"
   sodipodi:docname="Group_85.svg"
   inkscape:version="1.1.2 (0a00cf5339, 2022-02-04)"
   xmlns:inkscape="http://www.inkscape.org/namespaces/inkscape"
   xmlns:sodipodi="http://sodipodi.sourceforge.net/DTD/sodipodi-0.dtd"
   xmlns="http://www.w3.org/2000/svg"
   xmlns:svg="http://www.w3.org/2000/svg">
  <defs
     id="defs275" />
  <sodipodi:namedview
     id="namedview273"
     pagecolor="#ffffff"
     bordercolor="#666666"
     borderopacity="1.0"
     inkscape:pageshadow="2"
     inkscape:pageopacity="0.0"
     inkscape:pagecheckerboard="0"
     showgrid="false"
     inkscape:zoom="8.4588235"
     inkscape:cx="66.14395"
     inkscape:cy="42.5"
     inkscape:window-width="1920"
     inkscape:window-height="1125"
     inkscape:window-x="3840"
     inkscape:window-y="0"
     inkscape:window-maximized="1"
     inkscape:current-layer="svg271" />
  <path
     d="M1.5243 8.90775H3.54944C3.57122 8.9513 3.57122 8.99485 3.57122 9.0384C3.57122 9.19083 3.46234 9.29971 3.39701 9.38681C3.30991 9.51747 3.30991 9.62634 3.30991 9.73522V19.469C3.30991 20.2747 3.30991 21.0586 3.6801 21.8425C4.26804 23.0837 5.4657 23.7588 6.75047 23.7588C8.01346 23.7588 9.2329 23.1055 9.82085 21.8643C10.2128 21.0368 10.2346 20.2311 10.2346 19.4036V8.90775H11.9549V19.3601C11.9549 20.536 11.9113 21.6465 11.3016 22.7789C10.387 24.4774 8.57963 25.2831 6.7287 25.2831C4.83421 25.2831 3.02682 24.4338 2.13402 22.7789C1.54608 21.6683 1.5243 20.5795 1.5243 19.4472V8.90775ZM15.3954 13.1758H24.5848V14.4606L17.377 23.4104H24.4106C24.7372 23.4104 24.8679 23.2579 25.1074 23.2579H25.1945V25.0218H14.8728V23.7588L22.1895 14.809H15.3954V13.1758ZM28.4609 7.79718H30.6384C30.682 7.94961 30.5513 8.05849 30.5078 8.10204C30.3771 8.18915 30.3553 8.25447 30.3553 8.38513V15.0049C31.1175 13.7202 32.4894 12.9145 33.9919 12.9145C36.3001 12.9145 38.739 14.8307 38.739 18.9464C38.739 23.2362 36.2348 25.2831 33.8177 25.2831C32.3805 25.2831 31.0957 24.5863 30.3118 23.4321L29.6585 25H28.4609V7.79718ZM33.3386 14.5259C32.1845 14.5259 31.0957 15.1792 30.6602 16.2462C30.3989 16.8994 30.3553 17.6398 30.3553 18.7068C30.3553 19.7303 30.3553 20.4271 30.4207 21.0586C30.7255 23.3015 32.5111 23.6281 33.3168 23.6281C34.471 23.6281 36.801 22.9531 36.801 19.3383C36.801 15.1792 34.4492 14.5259 33.3386 14.5259ZM46.9484 12.9145C48.8647 12.9145 51.0641 13.9597 51.6084 17.1172C51.6956 17.5527 51.7391 18.01 51.7391 18.5108C51.7391 18.7939 51.7391 19.077 51.7173 19.3601H43.3337C43.4861 22.9095 45.7508 23.7806 47.3404 23.7806C48.5163 23.7806 49.6051 23.3015 50.389 22.4305L51.4125 23.4321C50.4108 24.6298 48.8865 25.2613 47.188 25.2613C44.0087 25.2613 41.5263 23.1708 41.5263 19.2294C41.5263 14.9178 44.1176 12.9145 46.9484 12.9145ZM43.399 17.9229H49.8882C49.9099 17.7922 49.9099 17.6616 49.9099 17.5309C49.9099 15.7889 48.6034 14.3517 46.8178 14.3517C45.5548 14.3517 43.7474 15.1356 43.399 17.9229ZM55.3321 7.84074H57.4443C57.4661 8.01494 57.379 8.12382 57.3137 8.21092C57.2266 8.3198 57.2048 8.38513 57.2048 8.49401V18.6197L63.106 13.1322C63.5851 13.2411 64.0206 13.2629 64.4997 13.2629H65.1747L60.1881 17.9447L66.0022 25.0218H65.8062C64.565 25.0218 63.5851 25.1089 63.5851 25.1089L58.7727 19.0988L57.2048 20.536V25.0218H55.3321V7.84074ZM69.7041 13.1758H74.4294V23.4975H77.1949V25H69.5516V23.4975H72.5567V14.7001H69.7041V13.1758ZM73.5366 8.05849C74.277 8.05849 74.8867 8.64644 74.8867 9.38681C74.8867 10.1272 74.277 10.7151 73.5366 10.7151C72.7962 10.7151 72.2083 10.1272 72.2083 9.38681C72.2083 8.64644 72.7962 8.05849 73.5366 8.05849ZM91.4798 14.7654L90.391 16.3986C90.3475 16.3986 90.2603 16.3115 90.2603 16.1591C90.2603 16.072 90.2603 16.0284 90.195 15.9413C89.716 15.3534 88.6054 14.3299 86.9287 14.3299C85.6003 14.3299 84.4462 14.9614 84.4462 15.9195C84.4462 16.3115 84.6422 16.8777 85.6003 17.3567C86.7109 17.8793 88.6272 18.1624 89.9555 18.9028C91.3274 19.6867 91.6758 20.7537 91.6758 21.5812C91.6758 23.3668 89.999 25.2613 86.7762 25.2613C84.9906 25.2613 83.1615 24.6734 81.7896 23.3886L82.8566 21.5377C82.9873 21.603 82.9655 21.7336 82.9655 21.7772C82.9655 21.8861 82.9655 21.9514 83.0526 22.0603C83.4228 22.474 84.7075 23.7152 86.7327 23.7152C88.4094 23.7152 89.7595 22.9531 89.7595 21.8425C89.7595 21.407 89.5635 20.8191 88.5836 20.34C87.7126 19.9263 86.4278 19.6214 85.4261 19.2512C84.7946 19.0117 82.5517 18.2713 82.5517 16.2026C82.5517 14.4388 84.3374 12.9145 87.0811 12.9145C88.8231 12.9145 90.391 13.5677 91.4798 14.7654ZM98.5133 10.0401L100.56 9.71345C100.582 9.757 100.582 9.80055 100.582 9.8441C100.582 10.0401 100.43 10.1707 100.386 10.3885C100.277 11.0635 100.103 13.1758 100.103 13.1758H103.957V14.7219H100.081C99.9288 16.2679 99.8634 17.7922 99.8634 19.3383C99.8634 21.0586 99.9288 21.4941 99.9288 21.603C100.125 23.0184 101.039 23.4975 101.91 23.4975C102.651 23.4975 103.565 23.1708 104.567 22.4305L105.155 23.9112C104.153 24.6516 102.803 25.2178 101.388 25.2178C100.19 25.2178 99.2537 24.7605 98.6876 23.9765C97.9907 22.9966 97.9907 21.799 97.9907 20.7537C97.9907 18.7504 98.0778 16.747 98.2303 14.7219H95.4647L95.4865 13.1976H98.2956L98.5133 10.0401ZM109.358 14.5912C110.446 13.4589 111.971 12.9363 113.56 12.9363C115.39 12.9363 116.892 13.6113 117.676 14.8961C118.22 15.8106 118.242 16.7252 118.242 17.6834V25H116.478V23.7152C115.194 24.7605 113.713 25.2831 112.254 25.2831C109.771 25.2831 108.291 23.6935 108.291 21.9514C108.291 20.6449 109.14 19.273 110.991 18.5762C112.363 18.0535 114.061 18.0535 115.694 18.0535H116.086H116.457V17.618C116.457 16.9865 116.457 16.2462 116.086 15.5929C115.76 15.0267 115.063 14.4606 113.647 14.4606C112.559 14.4606 111.23 14.7654 110.272 15.7671L109.358 14.5912ZM116.522 19.469H116.108H114.714C113.822 19.469 112.929 19.4907 112.232 19.6432C110.751 19.9916 110.163 20.9715 110.163 21.8425C110.163 22.8878 111.056 23.8677 112.624 23.8677C114.17 23.8677 115.324 22.9095 115.738 22.474C116.5 21.6683 116.522 20.9497 116.522 20.3618V20.2529V19.469ZM122.118 25V13.1976H124.013V15.288C124.884 13.9815 126.321 12.9145 127.932 12.9145C129.282 12.9145 130.502 13.6766 131.09 15.0049C131.504 15.9631 131.504 16.9212 131.504 17.8358V25H129.674V17.8793C129.674 17.0519 129.674 16.0284 129.043 15.2663C128.629 14.7654 128.019 14.5259 127.431 14.5259C126.19 14.5259 125.08 15.5493 124.601 16.1591C124.1 16.8123 124.013 17.4003 124.013 18.206V25H122.118Z"
     fill="white"
     id="path265" />
  <path
     d="m 83.5177,52.179431 c 0,9.889 -16.2588,32.6776 -16.2588,32.6776 0,0 -16.2589,-22.7886 -16.2589,-32.6776 0,-9.889 7.2793,-17.9055 16.2589,-17.9055 8.9795,0 16.2588,8.0165 16.2588,17.9055 z"
     fill="#F0B411"
     id="path4"
     style="fill:#018cfe;fill-opacity:1" />
  <path
     fill="#e7e7e7"
     stroke="#cccccc"
     style="color:#000000;fill:#0132ed;fill-opacity:1;stroke:#000000;stroke-opacity:1"
     stroke-width="0.660931"
     stroke-linejoin="round"
     stroke-dashoffset=""
     fill-rule="nonzero"
     id="knest1"
     d="m 56.402438,53.899091 4.717023,-13.605697 13.710028,0.552348 3.756265,13.947118 -11.388558,8.067422 z"
     fill-opacity="1" />
  <path
     fill="#e9e9e9"
     stroke="#cccccc"
     style="color:#000000;fill:#018cfe;fill-opacity:1;stroke:#000000;stroke-opacity:1"
     stroke-width="0.660931"
     stroke-linejoin="round"
     stroke-dashoffset=""
     fill-rule="nonzero"
     d="M 78.884281,47.302259 74.005934,60.844365 60.303552,60.110352 56.713334,46.114548 68.196869,38.198701 Z"
     fill-opacity="1"
     id="knest2" />
  <path
     fill="#ececec"
     stroke="#cccccc"
     style="color:#000000;fill:none;fill-opacity:1;stroke:#000000;stroke-width:0.661;stroke-miterlimit:4;stroke-dasharray:none;stroke-opacity:1"
     stroke-width="0.660931"
     stroke-linejoin="round"
     stroke-dashoffset=""
     fill-rule="nonzero"
     d="m 75.892552,44.854721 -0.554143,12.20953 -11.170958,3.200799 -6.349923,-10.231364 7.24652,-9.524118 z"
     fill-opacity="1"
     id="knest3" />
  <path
     fill="#e9e9e9"
     stroke="#cccccc"
     style="color:#000000;fill:#0134ed;fill-opacity:1;stroke:#000000;stroke-opacity:1"
     stroke-width="0.660931"
     stroke-linejoin="round"
     stroke-dashoffset=""
     fill-rule="nonzero"
     id="eagle"
     d="M 66.459493,51.493954 74.079972,46.244667 66.61648,55.29942 62.36287,48.822149 Z"
     fill-opacity="1" />
</svg>
