<?xml version="1.0" encoding="UTF-8" standalone="no"?>
<svg
   width="131"
   height="85"
   viewBox="0 0 131 85"
   fill="none"
   version="1.1"
   id="svg3"
   sodipodi:docname="Group_85_1.svg"
   inkscape:version="1.3.2 (091e20e, 2023-11-25, custom)"
   xmlns:inkscape="http://www.inkscape.org/namespaces/inkscape"
   xmlns:sodipodi="http://sodipodi.sourceforge.net/DTD/sodipodi-0.dtd"
   xmlns="http://www.w3.org/2000/svg"
   xmlns:svg="http://www.w3.org/2000/svg">
  <defs
     id="defs3" />
  <sodipodi:namedview
     id="namedview3"
     pagecolor="#ffffff"
     bordercolor="#000000"
     borderopacity="0.25"
     inkscape:showpageshadow="2"
     inkscape:pageopacity="0.0"
     inkscape:pagecheckerboard="0"
     inkscape:deskcolor="#d1d1d1"
     inkscape:zoom="9.5647059"
     inkscape:cx="67.069496"
     inkscape:cy="43.127306"
     inkscape:window-width="1920"
     inkscape:window-height="1009"
     inkscape:window-x="-8"
     inkscape:window-y="-8"
     inkscape:window-maximized="1"
     inkscape:current-layer="svg3" />
  <path
     d="M0.871029 9.25616H3.30991C3.30991 9.49569 3.20103 9.62634 3.20103 9.80055C3.20103 9.88765 3.20103 9.9312 3.24458 9.99653L7.14244 17.9447L9.1458 12.3265C9.49421 11.3466 9.82085 10.3232 10.0168 9.25616H11.9113C11.5629 10.3885 11.1709 11.4991 10.7572 12.5878L7.16421 22.1038C6.9029 22.7571 6.66337 23.3668 6.16253 23.933C5.40038 24.804 4.4858 25.196 3.70187 25.196C2.74374 25.196 1.87271 24.8693 1.19766 24.2161L2.13402 22.5829C2.28645 22.7135 2.28645 22.8878 2.35178 22.9966C2.39533 23.1273 2.85262 23.6935 3.70187 23.6935C4.07206 23.6935 4.39869 23.4539 4.87776 22.9531C5.24795 22.5611 5.4657 22.0821 5.68346 21.603L6.24963 20.1876L0.871029 9.25616ZM15.0252 23.062L15.8092 21.8861C16.6149 22.5176 17.377 23.3886 19.2933 23.3886C20.7958 23.3668 22.4943 22.6482 22.4943 21.7119C22.4943 21.1239 22.4072 19.8609 19.2933 19.8609C18.8795 19.8609 18.9013 19.8827 18.4876 19.9263V18.1624C18.7707 18.1842 19.0538 18.1842 19.2933 18.1842C21.9499 18.1842 22.4072 17.5309 22.4072 16.7688C22.4072 15.7889 21.3838 15.0703 19.903 15.0703C18.5311 15.0703 17.1593 15.3316 16.1794 16.3115L15.3301 15.1574C16.4624 13.9597 18.2045 13.4153 19.8812 13.4153C22.3637 13.4153 24.2364 15.0485 24.2364 16.7688C24.2364 17.8793 23.4089 18.6415 22.2983 18.9464C23.7138 19.1859 24.3017 20.4053 24.3017 21.6683C24.3017 23.6281 21.9281 25.0218 19.2715 25.0218C17.4641 25.0218 16.2229 24.3032 15.0252 23.062ZM29.2666 19.0988C29.2666 21.7336 30.6167 23.7588 32.7725 23.7588C34.4492 23.7588 36.1259 22.278 36.1259 19.3819C36.1259 16.2026 34.3621 14.7654 32.6854 14.7654C30.9215 14.7654 29.2666 16.2897 29.2666 19.0988ZM27.3939 17.8358C27.3939 16.3333 27.5245 14.5041 28.0689 13.0016C29.027 10.2578 31.0739 9.10373 32.9467 9.10373C33.7959 9.10373 34.9282 8.62466 34.9936 8.49401C35.0589 8.36335 35.0589 8.21092 35.2113 8.08027L36.1477 9.71345C35.4726 10.3667 33.883 10.6716 32.9467 10.6716C31.9885 10.6716 30.1376 11.1506 29.5061 14.4388C30.4425 13.6766 31.5966 13.2193 32.816 13.2193C35.4291 13.2193 37.9551 15.3098 37.9551 19.2948C37.9551 23.1273 35.4944 25.3049 32.7507 25.3049C30.9433 25.3049 29.4843 24.5645 28.5697 23.1708C27.5681 21.6465 27.3939 19.6867 27.3939 17.8358ZM46.0992 12.9145C48.0155 12.9145 50.2148 13.9597 50.7592 17.1172C50.8463 17.5527 50.8898 18.01 50.8898 18.5108C50.8898 18.7939 50.8898 19.077 50.8681 19.3601H42.4844C42.6369 22.9095 44.9015 23.7806 46.4912 23.7806C47.667 23.7806 48.7558 23.3015 49.5398 22.4305L50.5632 23.4321C49.5615 24.6298 48.0372 25.2613 46.3387 25.2613C43.1595 25.2613 40.677 23.1708 40.677 19.2294C40.677 14.9178 43.2683 12.9145 46.0992 12.9145ZM42.5497 17.9229H49.0389C49.0607 17.7922 49.0607 17.6616 49.0607 17.5309C49.0607 15.7889 47.7541 14.3517 45.9685 14.3517C44.7055 14.3517 42.8982 15.1356 42.5497 17.9229ZM54.1998 13.1976H56.312C56.312 13.2193 56.3338 13.2411 56.3338 13.2629C56.3338 13.4153 56.2249 13.5024 56.1596 13.5895C56.0725 13.6984 56.0725 13.7855 56.0725 13.8726V18.6197L61.9737 13.1322C62.4528 13.2411 62.8883 13.2629 63.3673 13.2629H64.0424L59.0557 17.9447L64.8699 25.0218H64.6739C63.4327 25.0218 62.4528 25.1089 62.4528 25.1089L57.6403 19.0988L56.0725 20.536V25.0218H54.1998V13.1976ZM67.1128 25V13.4806H68.9419V21.8207L74.756 13.4806H76.4981V25H74.7778L74.7996 15.9413L68.5282 25H67.1128ZM90.4128 15.1356L89.1062 16.6817C88.9102 16.5292 89.0409 16.2897 88.932 16.0937C88.8667 15.9631 87.9086 14.5477 85.8834 14.5477C83.7059 14.5477 81.9856 16.2026 81.9856 18.9028C81.9856 21.6683 83.7276 23.6281 86.0359 23.6281C87.2117 23.6281 88.3659 23.0837 89.1716 22.1692L90.2386 23.4104C89.1062 24.6298 87.5384 25.2831 85.8834 25.2831C82.5517 25.2831 80.0693 22.6482 80.0693 19.0988C80.0693 15.5493 82.53 12.958 85.9923 12.958C87.8868 12.958 89.4764 13.7637 90.4128 15.1356ZM92.9388 15.0485V13.4589H102.673V15.0485H98.7093V25.0218H96.9237V15.0485H92.9388ZM107.093 14.5912C108.182 13.4589 109.706 12.9363 111.296 12.9363C113.125 12.9363 114.627 13.6113 115.411 14.8961C115.956 15.8106 115.977 16.7252 115.977 17.6834V25H114.214V23.7152C112.929 24.7605 111.448 25.2831 109.989 25.2831C107.507 25.2831 106.026 23.6935 106.026 21.9514C106.026 20.6449 106.875 19.273 108.726 18.5762C110.098 18.0535 111.797 18.0535 113.43 18.0535H113.822H114.192V17.618C114.192 16.9865 114.192 16.2462 113.822 15.5929C113.495 15.0267 112.798 14.4606 111.383 14.4606C110.294 14.4606 108.966 14.7654 108.008 15.7671L107.093 14.5912ZM114.257 19.469H113.843H112.45C111.557 19.469 110.664 19.4907 109.967 19.6432C108.487 19.9916 107.899 20.9715 107.899 21.8425C107.899 22.8878 108.791 23.8677 110.359 23.8677C111.905 23.8677 113.06 22.9095 113.473 22.474C114.235 21.6683 114.257 20.9497 114.257 20.3618V20.2529V19.469ZM119.374 25V13.5024H121.204V18.2931H127.061V13.5024H128.825V25.0218H127.04V19.7956H121.204V25H119.374Z"
     fill="white"
     id="path1" />
  <path
     d="m 83.99494,52.313864 c 0,9.889 -16.2588,32.6776 -16.2588,32.6776 0,0 -16.258895,-22.7886 -16.258895,-32.6776 0,-9.889 7.279295,-17.9055 16.258895,-17.9055 8.9795,0 16.2588,8.0165 16.2588,17.9055 z"
     fill="#F0B411"
     id="path4"
     style="fill:#018cfe;fill-opacity:1" />
  <path
     fill="#e7e7e7"
     stroke="#cccccc"
     style="color:#000000;fill:#0132ed;fill-opacity:1;stroke:#000000;stroke-opacity:1"
     stroke-width="0.660931"
     stroke-linejoin="round"
     stroke-dashoffset=""
     fill-rule="nonzero"
     id="knest1"
     d="M 56.879683,54.033524 61.5967,40.427827 75.30673,40.980175 79.06299,54.927293 67.67444,62.994715 Z"
     fill-opacity="1" />
  <path
     fill="#e9e9e9"
     stroke="#cccccc"
     style="color:#000000;fill:#018cfe;fill-opacity:1;stroke:#000000;stroke-opacity:1"
     stroke-width="0.660931"
     stroke-linejoin="round"
     stroke-dashoffset=""
     fill-rule="nonzero"
     d="M 79.36152,47.436692 74.48317,60.978798 60.78079,60.244785 57.190579,46.248981 68.67411,38.333134 Z"
     fill-opacity="1"
     id="knest2" />
  <path
     fill="#ececec"
     stroke="#cccccc"
     style="color:#000000;fill:none;fill-opacity:1;stroke:#000000;stroke-width:0.661;stroke-miterlimit:4;stroke-dasharray:none;stroke-opacity:1"
     stroke-width="0.660931"
     stroke-linejoin="round"
     stroke-dashoffset=""
     fill-rule="nonzero"
     d="m 76.36979,44.989154 -0.55414,12.20953 -11.17096,3.200799 -6.34992,-10.231364 7.24652,-9.524118 z"
     fill-opacity="1"
     id="knest3" />
  <path
     fill="#e9e9e9"
     stroke="#cccccc"
     style="color:#000000;fill:#0134ed;fill-opacity:1;stroke:#000000;stroke-opacity:1"
     stroke-width="0.660931"
     stroke-linejoin="round"
     stroke-dashoffset=""
     fill-rule="nonzero"
     id="eagle"
     d="M 66.93673,51.628387 74.55721,46.3791 67.09372,55.433853 62.84011,48.956582 Z"
     fill-opacity="1" />
</svg>
