<?xml version="1.0" encoding="UTF-8" standalone="no"?>
<svg
   width="81"
   height="85"
   viewBox="0 0 81 85"
   fill="none"
   version="1.1"
   id="svg8"
   sodipodi:docname="Group_84.svg"
   inkscape:version="1.1.2 (0a00cf5339, 2022-02-04)"
   xmlns:inkscape="http://www.inkscape.org/namespaces/inkscape"
   xmlns:sodipodi="http://sodipodi.sourceforge.net/DTD/sodipodi-0.dtd"
   xmlns="http://www.w3.org/2000/svg"
   xmlns:svg="http://www.w3.org/2000/svg">
  <defs
     id="defs12" />
  <sodipodi:namedview
     id="namedview10"
     pagecolor="#ffffff"
     bordercolor="#666666"
     borderopacity="1.0"
     inkscape:pageshadow="2"
     inkscape:pageopacity="0.0"
     inkscape:pagecheckerboard="0"
     showgrid="false"
     inkscape:zoom="8.4588235"
     inkscape:cx="39.662726"
     inkscape:cy="42.5"
     inkscape:window-width="1920"
     inkscape:window-height="1125"
     inkscape:window-x="3840"
     inkscape:window-y="0"
     inkscape:window-maximized="1"
     inkscape:current-layer="svg8" />
  <path
     d="M7.8582 8.77709C9.99222 8.77709 11.9085 10.0183 12.7795 11.9563L11.0592 12.8056C10.9504 12.7185 10.9504 12.5661 10.9504 12.5443C10.9504 12.479 10.9721 12.4136 10.9721 12.3483C10.9721 12.2177 10.9068 12.1741 10.8632 12.087C10.21 10.9547 9.05586 10.2143 7.79287 10.2143C5.50642 10.2143 3.48128 12.6096 3.48128 16.8777C3.48128 21.2328 5.57175 23.7152 7.9453 23.7152C9.20829 23.7152 10.4931 22.9531 11.2334 21.7336L12.5618 22.6047C11.5601 24.2596 9.75269 25.2613 7.83642 25.2613C5.17979 25.2613 1.71745 23.2797 1.71745 17.0519C1.71745 10.6063 5.35399 8.77709 7.8582 8.77709ZM15.2184 13.1976H17.5266C17.5484 13.4371 17.4177 13.5677 17.4177 13.7637C17.4177 13.8291 17.4395 13.8944 17.4613 13.9597L20.9236 22.6482L23.1665 16.3333C23.5367 15.3098 23.8634 14.2646 24.0593 13.1758H25.9974C25.649 14.3299 25.2352 15.4622 24.8215 16.5946L21.1414 26.3283C20.8801 27.0034 20.6405 27.6131 20.1179 28.201C19.334 29.0938 18.2234 29.4858 17.1564 29.4858C16.1765 29.4858 15.2837 29.1592 14.6087 28.5059L15.5668 26.8292C15.7192 26.938 15.6975 27.1122 15.7628 27.2429C15.8281 27.3736 16.2854 27.9615 17.1564 27.9615C17.7008 27.9615 18.3105 27.722 18.8114 27.1993C19.1816 26.8074 19.4211 26.3065 19.6171 25.8275L20.0091 24.9564L15.2184 13.1976ZM28.9153 13.1976H30.8098V15.0049C31.6155 13.7202 33.0092 12.9363 34.5335 12.9363C36.8417 12.9363 39.3241 14.7872 39.3241 18.9464C39.3241 23.2797 36.7981 25.3049 34.381 25.3049C32.9438 25.3049 31.6155 24.5863 30.8316 23.4321V29.3116H28.9371L28.9153 13.1976ZM33.8584 14.5259C32.6607 14.5259 31.5502 15.1792 31.1147 16.2462C30.8534 16.8559 30.8098 17.5527 30.8098 18.5544C30.8098 20.2747 30.8098 21.2328 31.1364 22.0385C31.6155 23.1055 32.7261 23.6717 33.8366 23.6717C34.9472 23.6717 37.3861 23.062 37.3861 19.3601C37.3861 15.0485 34.8819 14.5259 33.8584 14.5259ZM43.2873 13.1976H45.2253L45.16 15.484C45.9439 13.7855 47.686 12.9145 49.4063 12.9145C50.7346 12.9145 51.8234 13.4371 52.5637 14.1992L51.6927 15.9849C51.4967 15.7889 51.4096 15.5929 51.2572 15.3969C50.9306 14.9832 50.2991 14.5259 49.2974 14.5259C48.4699 14.5259 47.0545 14.809 45.9875 16.5075C45.1818 17.7705 45.16 18.5544 45.16 19.273V25.0218H43.2873V13.1976ZM55.6995 13.1976H57.5722V19.7738C57.5722 20.5795 57.5722 21.4941 57.9859 22.3216C58.465 23.2579 59.3142 23.7806 60.2506 23.7806C61.3829 23.7806 62.4281 23.0184 62.9725 22.0385C63.3645 21.2981 63.4298 20.6013 63.4298 19.6867V13.1976H65.3025V23.933C65.3025 24.2814 65.3243 24.6516 65.4332 25H63.4734C63.4298 24.6951 63.4298 24.3903 63.4298 24.0854L63.4516 23.1926C62.6895 24.4774 61.2958 25.2831 59.8151 25.2831C58.269 25.2831 56.8318 24.4556 56.135 22.8878C55.6777 21.9514 55.6559 20.9933 55.6559 20.0351C55.6559 19.948 55.6777 19.8609 55.6777 19.7738L55.6995 13.1976ZM78.5857 14.7654L77.4969 16.3986C77.4534 16.3986 77.3663 16.3115 77.3663 16.1591C77.3663 16.072 77.3663 16.0284 77.301 15.9413C76.8219 15.3534 75.7113 14.3299 74.0346 14.3299C72.7063 14.3299 71.5522 14.9614 71.5522 15.9195C71.5522 16.3115 71.7481 16.8777 72.7063 17.3567C73.8168 17.8793 75.7331 18.1624 77.0614 18.9028C78.4333 19.6867 78.7817 20.7537 78.7817 21.5812C78.7817 23.3668 77.105 25.2613 73.8822 25.2613C72.0966 25.2613 70.2674 24.6734 68.8955 23.3886L69.9625 21.5377C70.0932 21.603 70.0714 21.7336 70.0714 21.7772C70.0714 21.8861 70.0714 21.9514 70.1585 22.0603C70.5287 22.474 71.8135 23.7152 73.8386 23.7152C75.5153 23.7152 76.8654 22.9531 76.8654 21.8425C76.8654 21.407 76.6695 20.8191 75.6896 20.34C74.8185 19.9263 73.5338 19.6214 72.5321 19.2512C71.9006 19.0117 69.6577 18.2713 69.6577 16.2026C69.6577 14.4388 71.4433 12.9145 74.187 12.9145C75.9291 12.9145 77.4969 13.5677 78.5857 14.7654Z"
     fill="white"
     id="path2" />
  <path
     d="M56.5177 52.3224C56.5177 62.2114 40.2589 85 40.2589 85C40.2589 85 24 62.2114 24 52.3224C24 42.4334 31.2793 34.4169 40.2589 34.4169C49.2384 34.4169 56.5177 42.4334 56.5177 52.3224Z"
     fill="#F0B411"
     id="path4"
     style="fill:#018cfe;fill-opacity:1" />
  <path
     fill="#e7e7e7"
     stroke="#cccccc"
     style="color:#000000;fill:#0132ed;stroke:#000000;stroke-opacity:1;fill-opacity:1"
     stroke-width="0.660931"
     stroke-linejoin="round"
     stroke-dashoffset=""
     fill-rule="nonzero"
     id="knest1"
     d="m 29.402438,54.04206 4.717023,-13.605697 13.710028,0.552348 3.756265,13.947118 -11.388558,8.067422 z"
     fill-opacity="1" />
  <path
     fill="#e9e9e9"
     stroke="#cccccc"
     style="color:#000000;fill:#018cfe;stroke:#000000;stroke-opacity:1;fill-opacity:1"
     stroke-width="0.660931"
     stroke-linejoin="round"
     stroke-dashoffset=""
     fill-rule="nonzero"
     d="M 51.884281,47.445228 47.005934,60.987334 33.303552,60.253321 29.713334,46.257517 41.196869,38.34167 Z"
     fill-opacity="1"
     id="knest2" />
  <path
     fill="#ececec"
     stroke="#cccccc"
     style="color:#000000;fill-opacity:1;fill:none;stroke:#000000;stroke-opacity:1;stroke-width:0.661;stroke-miterlimit:4;stroke-dasharray:none"
     stroke-width="0.660931"
     stroke-linejoin="round"
     stroke-dashoffset=""
     fill-rule="nonzero"
     d="m 48.892552,44.99769 -0.554143,12.20953 -11.170958,3.200799 -6.349923,-10.231364 7.24652,-9.524118 z"
     fill-opacity="1"
     id="knest3" />
  <path
     fill="#e9e9e9"
     stroke="#cccccc"
     style="color:#000000;stroke:#000000;stroke-opacity:1;fill:#0134ed;fill-opacity:1"
     stroke-width="0.660931"
     stroke-linejoin="round"
     stroke-dashoffset=""
     fill-rule="nonzero"
     id="eagle"
     d="m 39.459493,51.636923 7.620479,-5.249287 -7.463492,9.054753 -4.25361,-6.477271 z"
     fill-opacity="1" />

</svg>
