<?xml version="1.0" encoding="UTF-8" standalone="no"?>
<svg
   width="79"
   height="85"
   viewBox="0 0 79 85"
   fill="none"
   version="1.1"
   id="svg3"
   sodipodi:docname="Group_83_1.svg"
   inkscape:version="1.3.2 (091e20e, 2023-11-25, custom)"
   xmlns:inkscape="http://www.inkscape.org/namespaces/inkscape"
   xmlns:sodipodi="http://sodipodi.sourceforge.net/DTD/sodipodi-0.dtd"
   xmlns="http://www.w3.org/2000/svg"
   xmlns:svg="http://www.w3.org/2000/svg">
  <defs
     id="defs3" />
  <sodipodi:namedview
     id="namedview3"
     pagecolor="#ffffff"
     bordercolor="#000000"
     borderopacity="0.25"
     inkscape:showpageshadow="2"
     inkscape:pageopacity="0.0"
     inkscape:pagecheckerboard="0"
     inkscape:deskcolor="#d1d1d1"
     inkscape:zoom="9.5647059"
     inkscape:cx="39.46802"
     inkscape:cy="43.440959"
     inkscape:window-width="1920"
     inkscape:window-height="1009"
     inkscape:window-x="-8"
     inkscape:window-y="-8"
     inkscape:window-maximized="1"
     inkscape:current-layer="svg3" />
  <path
     d="M3.76605 15.7671V17.4221V23.3886L3.78783 25H2.04577V8.88597H10.2117H11.9319V10.4756V25H10.2117V10.4756H3.76605V15.7671ZM25.4764 19.1423C25.4764 23.062 22.9505 25.3049 20.1632 25.3049C17.1799 25.3049 14.6321 22.7789 14.6321 19.1859C14.6321 15.5493 17.2234 12.9363 20.2285 12.9363C22.9069 12.9363 25.4764 15.0703 25.4764 19.1423ZM20.0978 14.5259C18.2905 14.5259 16.5919 16.1373 16.5919 19.0335C16.5919 21.9514 18.3122 23.7152 20.1849 23.7152C21.9052 23.7152 23.6037 22.1909 23.6037 19.2294C23.6037 15.9631 21.7963 14.5259 20.0978 14.5259ZM26.8265 24.2161L27.4363 22.5829C27.5234 22.7135 27.5234 22.8878 27.5669 22.9966C27.6105 23.1273 28.0242 23.6935 28.4379 23.6935C28.6339 23.6935 28.7428 23.5628 28.8517 23.2797C29.0041 22.8878 29.2001 22.2998 29.309 21.8207C29.7227 19.8174 30.0058 17.2696 30.1582 15.0049C30.18 14.8525 30.18 14.7219 30.18 14.613C30.18 13.9162 30.0493 13.5024 30.0493 13.5024H37.6708V25.0218H35.8852V15.0049H31.8785C31.6825 17.6398 31.3777 20.6449 30.9204 22.5611C30.7679 23.2362 30.5502 23.9548 30.2018 24.4992C29.8751 25.0218 28.9606 25.196 28.4597 25.196C27.8282 25.196 27.262 24.8693 26.8265 24.2161ZM41.7865 25V13.4589H43.6592C43.6592 13.5024 43.6809 13.546 43.6809 13.5895C43.6809 13.7855 43.5285 13.8073 43.5285 14.0686V18.01H44.8133C47.2522 18.01 48.1014 18.1842 48.8853 18.7286C49.9959 19.5125 50.4532 20.4707 50.4532 21.8207C50.4532 22.9966 49.4515 24.2378 48.1232 24.6734C47.4917 24.8476 46.0109 25 45.0528 25H41.7865ZM43.5285 23.4757H45.3577C46.0327 23.4757 46.5336 23.4539 47.2086 23.2797C48.2974 22.9749 48.6022 22.3651 48.6022 21.6901C48.6022 21.015 48.2756 19.9045 47.0997 19.6649C46.3158 19.5125 45.7061 19.5125 44.9222 19.5125H43.5285V23.4757ZM53.5018 25V13.4589H55.3309V23.4975H58.336V13.4589H60.0998V23.4975H62.996V13.4589H64.7598V25H53.5018ZM68.2004 14.5912C69.2892 13.4589 70.8135 12.9363 72.4031 12.9363C74.2323 12.9363 75.7348 13.6113 76.5187 14.8961C77.0631 15.8106 77.0849 16.7252 77.0849 17.6834V25H75.3211V23.7152C74.0363 24.7605 72.5555 25.2831 71.0966 25.2831C68.6141 25.2831 67.1334 23.6935 67.1334 21.9514C67.1334 20.6449 67.9826 19.273 69.8336 18.5762C71.2054 18.0535 72.9039 18.0535 74.5371 18.0535H74.9291H75.2993V17.618C75.2993 16.9865 75.2993 16.2462 74.9291 15.5929C74.6025 15.0267 73.9056 14.4606 72.4902 14.4606C71.4014 14.4606 70.0731 14.7654 69.115 15.7671L68.2004 14.5912ZM75.3646 19.469H74.9509H73.5572C72.6644 19.469 71.7716 19.4907 71.0748 19.6432C69.594 19.9916 69.0061 20.9715 69.0061 21.8425C69.0061 22.8878 69.8989 23.8677 71.4668 23.8677C73.0128 23.8677 74.1669 22.9095 74.5807 22.474C75.3428 21.6683 75.3646 20.9497 75.3646 20.3618V20.2529V19.469Z"
     fill="white"
     id="path1" />
  <path
     d="m 54.622251,51.846459 c 0,9.889 -16.2588,32.6776 -16.2588,32.6776 0,0 -16.2589,-22.7886 -16.2589,-32.6776 0,-9.889 7.2793,-17.9055 16.2589,-17.9055 8.9795,0 16.2588,8.0165 16.2588,17.9055 z"
     fill="#F0B411"
     id="path4"
     style="fill:#018cfe;fill-opacity:1" />
  <path
     fill="#e7e7e7"
     stroke="#cccccc"
     style="color:#000000;fill:#0132ed;fill-opacity:1;stroke:#000000;stroke-opacity:1"
     stroke-width="0.660931"
     stroke-linejoin="round"
     stroke-dashoffset=""
     fill-rule="nonzero"
     id="knest1"
     d="M 27.506989,53.566119 32.224012,39.960422 45.93404,40.51277 49.690305,54.459888 38.301747,62.52731 Z"
     fill-opacity="1" />
  <path
     fill="#e9e9e9"
     stroke="#cccccc"
     style="color:#000000;fill:#018cfe;fill-opacity:1;stroke:#000000;stroke-opacity:1"
     stroke-width="0.660931"
     stroke-linejoin="round"
     stroke-dashoffset=""
     fill-rule="nonzero"
     d="M 49.988832,46.969287 45.110485,60.511393 31.408103,59.77738 27.817885,45.781576 39.30142,37.865729 Z"
     fill-opacity="1"
     id="knest2" />
  <path
     fill="#ececec"
     stroke="#cccccc"
     style="color:#000000;fill:none;fill-opacity:1;stroke:#000000;stroke-width:0.661;stroke-miterlimit:4;stroke-dasharray:none;stroke-opacity:1"
     stroke-width="0.660931"
     stroke-linejoin="round"
     stroke-dashoffset=""
     fill-rule="nonzero"
     d="m 46.997103,44.521749 -0.554143,12.20953 -11.170958,3.200799 -6.349923,-10.231364 7.24652,-9.524118 z"
     fill-opacity="1"
     id="knest3" />
  <path
     fill="#e9e9e9"
     stroke="#cccccc"
     style="color:#000000;fill:#0134ed;fill-opacity:1;stroke:#000000;stroke-opacity:1"
     stroke-width="0.660931"
     stroke-linejoin="round"
     stroke-dashoffset=""
     fill-rule="nonzero"
     id="eagle"
     d="m 37.564044,51.160982 7.620479,-5.249287 -7.463492,9.054753 -4.25361,-6.477271 z"
     fill-opacity="1" />
</svg>
